# xmcd CD database file
#
# Track frame offsets:
#	150
#	19621
#	45721
#	64176
#	82914
#	105297
#	132778
#	155039
#	172545
#	195477
#	213751
#	238826
#	261231
#	282361
#	302703
#	322970
#
# Disc length: 4563 seconds
#
# Revision: 0
# Processed by: cddbd v1.5.2PL0 Copyright (c) Steve Scherf et al.
# Submitted via: CDex 1.70beta2
#
DISCID=cb11d110
DTITLE=DJ El Chino - Solar Latin Club Vol. 2
DYEAR=1900
DGENRE=Salsa
TTITLE0=Salsa De Barrio
TTITLE1=Lo Que Me Gusta De Ti
TTITLE2=Para Qué Volver
TTITLE3=Descongélate
TTITLE4=Sensemaya
TTITLE5=Abuelos
TTITLE6=El Cantante
TTITLE7=Me Vas A Acabar
TTITLE8=Buen Sonero
TTITLE9=Tu Tienes
TTITLE10=Fango
TTITLE11=Momentos Robados
TTITLE12=Wonderful Life
TTITLE13=Alls Óvaent
TTITLE14=Fragilidad
TTITLE15=Descarga De Boulez
EXTD=
EXTT0=
EXTT1=
EXTT2=
EXTT3=
EXTT4=
EXTT5=
EXTT6=
EXTT7=
EXTT8=
EXTT9=
EXTT10=
EXTT11=
EXTT12=
EXTT13=
EXTT14=
EXTT15=
PLAYORDER=
